<?xml version="1.0" standalone="no"?>
<!DOCTYPE svg PUBLIC "-//W3C//DTD SVG 20010904//EN"
 "http://www.w3.org/TR/2001/REC-SVG-20010904/DTD/svg10.dtd">
<svg version="1.0" xmlns="http://www.w3.org/2000/svg"
 width="240.000000pt" height="240.000000pt" viewBox="0 0 240.000000 240.000000"
 preserveAspectRatio="xMidYMid meet">
<metadata>
Created by potrace 1.11, written by Peter Selinger 2001-2013
</metadata>
<g transform="translate(0.000000,240.000000) scale(0.100000,-0.100000)"
fill="#000000" stroke="none">
<path d="M960 2360 c-8 -5 -12 -12 -9 -15 4 -3 12 1 19 10 14 17 11 19 -10 5z"/>
<path d="M1090 2350 c-13 -18 -15 -18 -27 -2 -13 15 -13 14 -8 -8 5 -22 4 -23
-5 -7 -10 15 -14 16 -28 5 -13 -11 -15 -11 -9 4 5 14 2 15 -24 6 -16 -5 -31
-14 -34 -19 -3 -4 -13 -5 -21 -2 -9 3 -19 0 -24 -6 -5 -9 -9 -8 -13 4 -4 9 -3
14 2 11 4 -3 17 1 27 10 18 15 18 15 -1 6 -11 -5 -28 -8 -38 -7 -13 3 -15 0
-8 -9 7 -8 4 -16 -12 -26 -20 -12 -21 -12 -9 3 12 14 10 15 -17 13 -17 -1 -33
-5 -37 -9 -4 -3 3 -4 16 -2 19 4 20 2 9 -11 -12 -14 -15 -14 -33 7 -15 18 -18
19 -13 5 6 -14 3 -17 -8 -12 -9 3 -13 2 -10 -4 8 -13 -28 -13 -41 0 -7 7 -11
6 -11 -4 0 -8 4 -13 9 -10 4 3 8 0 8 -5 0 -15 -27 -14 -33 2 -3 6 -6 2 -6 -10
-1 -13 -6 -23 -12 -23 -5 0 -8 4 -4 9 3 5 0 13 -6 17 -8 4 -9 3 -5 -4 10 -16
-6 -15 -24 1 -8 6 -6 2 3 -10 21 -25 8 -39 -22 -23 -29 15 -38 12 -15 -5 10
-8 17 -15 14 -15 -33 -8 -39 -7 -33 3 3 7 -5 1 -19 -13 -13 -14 -23 -28 -21
-32 6 -12 -29 -2 -36 11 -6 10 -10 9 -14 -4 -4 -9 -3 -13 3 -10 6 3 10 -1 10
-9 0 -8 -5 -18 -12 -22 -6 -4 -8 -3 -5 3 4 6 -2 13 -14 16 -16 4 -18 3 -8 -9
9 -11 8 -15 -4 -20 -9 -3 -19 -15 -23 -26 -3 -11 -8 -17 -11 -14 -3 3 2 17 11
30 14 22 14 25 1 20 -8 -4 -15 -10 -15 -16 0 -5 -4 -6 -10 -3 -6 3 -7 -1 -4
-10 4 -8 1 -22 -6 -30 -11 -13 -15 -13 -29 -2 -18 15 -57 15 -73 -1 -12 -12
-20 -94 -7 -87 5 4 6 -1 3 -9 -3 -8 -12 -12 -20 -9 -8 3 -14 2 -13 -3 4 -24
-1 -38 -12 -27 -14 14 -56 -5 -62 -28 -6 -21 16 -62 27 -52 5 4 -2 -8 -15 -28
-12 -20 -30 -36 -38 -35 -9 1 -16 -5 -16 -12 0 -7 -7 -17 -15 -22 -8 -5 -10
-10 -4 -10 16 0 35 25 27 34 -4 4 0 4 9 1 15 -6 14 -10 -9 -31 -14 -13 -30
-21 -36 -17 -6 3 -7 1 -3 -6 4 -6 11 -9 16 -6 5 3 12 1 15 -5 4 -6 1 -9 -7 -8
-8 2 -13 -7 -13 -24 1 -26 0 -27 -19 -10 -11 9 -16 12 -13 5 4 -6 2 -23 -5
-38 -7 -16 -8 -29 -2 -33 14 -10 13 -39 -1 -39 -8 0 -11 7 -7 16 3 9 2 13 -2
10 -10 -10 -16 -50 -6 -44 5 3 8 -4 7 -15 -1 -21 -17 -29 -17 -8 0 6 -3 8 -7
4 -5 -4 1 -14 11 -22 18 -13 18 -14 2 -14 -9 0 -14 -5 -11 -10 4 -6 1 -17 -5
-25 -10 -12 -9 -16 4 -21 15 -6 15 -8 -1 -21 -17 -14 -17 -14 1 -9 16 5 17 4
7 -8 -7 -8 -9 -21 -5 -27 4 -8 3 -9 -4 -5 -19 11 -14 -5 6 -21 9 -8 11 -12 5
-8 -7 3 -13 1 -13 -5 0 -6 -4 -9 -9 -5 -5 3 -13 0 -17 -6 -4 -8 -3 -9 4 -5 7
4 12 1 12 -8 0 -9 4 -16 9 -16 10 0 6 -97 -5 -125 -7 -18 -6 -19 11 -5 12 10
16 10 11 2 -4 -7 -3 -19 4 -27 8 -9 8 -15 0 -20 -8 -5 -7 -12 2 -23 12 -15 11
-16 -4 -3 -22 17 -23 8 -2 -13 9 -9 17 -22 18 -29 1 -6 6 -18 10 -26 7 -11 5
-13 -7 -8 -12 4 -14 2 -10 -10 5 -12 3 -14 -7 -8 -9 6 -11 4 -5 -4 5 -9 10
-10 18 -2 6 6 16 11 22 11 5 0 4 -4 -3 -9 -11 -7 -11 -11 2 -23 8 -9 12 -18 9
-22 -3 -3 0 -12 7 -21 10 -12 10 -15 -3 -15 -9 0 -18 -4 -21 -9 -3 -4 6 -7 20
-5 22 2 23 0 12 -14 -10 -12 -10 -14 0 -8 6 4 12 3 12 -1 0 -5 -6 -15 -12 -22
-11 -11 -9 -11 12 -1 24 13 24 12 10 -5 -14 -17 -13 -17 10 -10 23 7 23 7 7
-9 -15 -16 -15 -19 -1 -41 9 -13 24 -27 35 -30 10 -4 18 -9 18 -13 -3 -22 2
-32 14 -26 7 5 6 0 -3 -11 -13 -17 -13 -18 1 -13 12 5 15 0 14 -23 -1 -15 2
-26 7 -23 4 3 8 0 8 -5 0 -6 5 -11 11 -11 8 0 8 4 0 14 -8 10 -9 16 -1 21 6 4
9 1 8 -7 -2 -7 4 -12 12 -10 10 3 9 -3 -5 -19 -11 -12 -14 -19 -6 -14 11 6 13
4 8 -9 -6 -14 -3 -16 13 -11 12 4 20 2 20 -5 0 -6 -4 -8 -10 -5 -5 3 -10 -1
-10 -10 0 -9 5 -13 11 -9 7 4 10 1 7 -7 -3 -8 -11 -13 -17 -11 -7 1 -10 -2 -6
-8 3 -6 10 -8 15 -5 5 3 11 1 15 -4 3 -5 -3 -14 -12 -20 -10 -6 -13 -11 -7
-11 19 0 35 25 23 37 -6 6 -5 10 6 10 8 0 13 -3 10 -5 -3 -3 1 -12 8 -20 7
-10 8 -13 1 -9 -7 4 -14 -2 -17 -13 -3 -11 -1 -23 5 -26 6 -4 5 -10 -3 -16
-11 -7 -11 -9 1 -7 28 3 41 -1 35 -10 -3 -5 0 -13 5 -16 7 -5 5 -11 -6 -19
-13 -10 -14 -15 -4 -21 8 -5 11 -4 7 2 -4 6 0 14 9 17 11 4 15 2 11 -7 -3 -8
1 -14 9 -14 14 0 11 10 -15 42 -9 11 -12 17 -7 13 5 -4 15 -3 23 4 11 9 13 8
11 -3 -2 -8 3 -13 12 -11 12 3 13 1 2 -9 -13 -14 -16 -30 -4 -27 4 2 17 -6 29
-17 21 -19 21 -21 3 -21 -10 0 -16 5 -13 10 3 5 1 6 -5 2 -8 -5 -10 -1 -5 11
6 17 6 17 -10 1 -20 -20 -22 -29 -4 -26 6 2 11 -3 9 -10 -1 -8 2 -11 8 -7 5 3
13 0 16 -9 3 -8 13 -17 22 -21 13 -5 13 -2 -3 15 -10 11 -13 20 -7 20 7 0 12
-5 12 -11 0 -5 4 -8 8 -5 4 2 9 -7 10 -20 2 -21 -1 -23 -16 -15 -14 7 -19 6
-19 -4 0 -7 6 -11 13 -8 8 3 11 -4 10 -21 -2 -14 1 -23 6 -20 5 3 7 13 6 21
-2 9 2 18 9 20 7 3 10 -5 9 -20 -2 -18 1 -23 13 -21 26 7 45 -13 46 -47 0 -22
6 -33 18 -35 9 -1 15 2 11 7 -3 5 -9 7 -14 4 -12 -7 -6 23 7 36 8 8 13 8 18 0
3 -6 3 -10 -2 -9 -4 2 -8 -1 -8 -7 0 -5 3 -9 8 -7 4 1 6 -1 6 -5 -3 -20 2 -24
16 -13 13 11 14 10 9 -4 -4 -10 -13 -15 -20 -12 -8 3 -14 1 -14 -4 0 -6 7 -10
15 -10 8 0 15 -5 15 -11 0 -5 -5 -7 -12 -3 -7 4 -8 3 -4 -4 4 -6 13 -9 20 -6
8 3 16 -4 19 -16 5 -19 36 -24 53 -7 9 8 24 -1 24 -14 0 -6 -4 -8 -8 -5 -5 3
-9 -1 -9 -9 0 -11 3 -12 14 -3 8 6 12 17 9 25 -3 7 -1 13 5 13 6 0 8 4 4 10
-7 11 49 42 59 33 3 -4 6 -3 6 2 0 4 -8 14 -17 22 -16 13 -16 13 4 4 14 -7 24
-8 28 -1 3 5 1 10 -4 10 -6 0 -11 5 -11 11 0 8 4 8 14 0 9 -7 17 -8 20 -2 3 5
0 12 -6 15 -7 3 -3 3 10 0 33 -8 55 12 41 40 -10 17 -9 19 2 8 15 -14 33 -16
24 -3 -3 6 4 8 15 6 11 -2 20 1 20 7 0 6 3 8 7 4 5 -4 1 -13 -7 -19 -8 -7 -16
-19 -18 -27 -4 -17 25 11 47 45 11 18 12 18 7 1 -5 -13 -2 -17 8 -13 7 3 19 0
26 -6 10 -9 11 -9 6 0 -5 8 -1 13 9 13 10 0 13 -5 9 -12 -4 -7 6 -2 22 12 15
14 23 18 16 9 -10 -14 -10 -18 3 -23 9 -3 14 -2 11 3 -11 16 42 18 60 2 15
-14 16 -14 11 0 -3 9 1 16 9 16 8 0 14 -7 14 -14 0 -8 5 -11 10 -8 6 4 8 10 6
14 -3 3 4 7 14 7 10 0 16 -5 13 -12 -6 -15 19 -24 51 -18 13 2 28 0 31 -6 3
-5 2 -10 -4 -10 -6 0 -8 -7 -4 -16 5 -13 2 -15 -15 -9 -14 4 -22 2 -22 -5 0
-6 4 -9 9 -6 15 9 52 -29 40 -41 -8 -8 -7 -13 2 -18 8 -6 10 -4 4 5 -5 8 -3
11 6 8 8 -3 23 -1 34 5 19 9 19 9 3 -9 -16 -19 -16 -20 2 -20 10 0 17 4 14 7
-2 4 0 10 5 13 5 4 8 -5 7 -19 -2 -13 1 -22 5 -19 5 3 9 0 9 -6 0 -6 4 -9 9
-6 5 4 12 0 14 -6 4 -10 6 -10 6 0 1 7 -6 15 -14 18 -8 4 -15 11 -15 17 0 7 4
7 12 -1 7 -7 21 -12 33 -13 11 0 14 -3 7 -6 -10 -4 -10 -8 -1 -19 14 -17 29
-18 29 -3 0 5 -5 7 -11 3 -7 -4 -10 -1 -7 7 3 8 17 13 34 12 16 0 23 1 16 4
-6 2 -10 8 -8 12 3 4 -1 8 -9 8 -8 0 -12 -3 -10 -7 2 -4 -2 -7 -10 -7 -8 0
-16 6 -19 13 -3 8 0 11 8 8 8 -3 17 0 21 6 4 7 17 2 36 -14 59 -50 181 -94
273 -99 211 -12 406 101 496 288 116 241 38 516 -187 662 -50 32 -67 53 -42
53 8 0 7 5 -1 15 -11 13 -10 14 1 10 10 -4 15 2 16 15 1 13 -3 18 -10 14 -7
-3 -4 1 6 10 19 15 17 44 -6 76 -9 12 -9 13 3 3 19 -18 35 -16 21 1 -9 11 -9
16 0 22 8 5 9 3 4 -6 -5 -9 -4 -11 4 -6 9 6 9 11 -1 23 -17 21 -19 46 -3 39 9
-3 12 0 8 9 -3 8 -10 12 -17 8 -8 -4 -8 -2 1 7 6 7 9 19 6 28 -4 9 -2 13 3 9
13 -7 9 49 -3 66 -13 16 -24 47 -17 47 2 0 9 -10 14 -22 8 -22 9 -21 7 5 -1
15 -5 27 -10 27 -5 0 -5 6 2 13 8 10 7 17 -1 25 -8 8 -8 16 2 29 12 15 12 16
0 6 -8 -7 -17 -13 -21 -13 -9 0 -6 27 4 36 10 11 8 24 -4 24 -5 0 -7 -4 -4
-10 10 -16 -1 -11 -16 7 -10 11 -10 14 -1 9 8 -5 12 0 12 13 0 12 -4 21 -10
21 -5 0 -10 7 -10 15 0 8 5 15 10 15 6 0 5 6 -2 14 -9 10 -15 11 -20 2 -5 -7
-8 -7 -8 0 0 5 5 15 12 22 9 9 8 12 -6 12 -9 0 -14 5 -11 10 4 6 11 7 17 4 7
-4 8 -2 4 4 -4 6 -14 8 -23 5 -12 -5 -14 -3 -7 8 15 25 13 41 -7 46 -20 6 -22
32 -4 46 6 4 -3 5 -20 3 -29 -5 -29 -4 -10 10 20 16 20 16 -2 9 -19 -5 -22 -3
-16 11 5 13 3 15 -8 9 -12 -7 -12 -6 -1 7 11 14 10 18 -4 26 -10 6 -13 12 -6
16 14 8 -27 86 -45 86 -8 0 -16 7 -20 16 -5 13 -7 13 -14 2 -6 -9 -9 -4 -9 16
0 40 -21 106 -31 100 -5 -3 -9 0 -9 7 0 8 -14 10 -46 6 -42 -4 -49 -2 -74 26
-24 28 -30 30 -44 17 -10 -7 -16 -9 -15 -4 5 27 -1 36 -16 24 -10 -8 -15 -9
-15 -2 0 6 8 16 18 22 14 10 14 11 0 6 -9 -2 -19 -2 -23 2 -4 4 -12 7 -18 7
-7 0 -11 9 -10 20 1 11 0 14 -3 8 -6 -15 -51 -18 -56 -4 -1 5 -14 11 -28 13
-14 1 -32 11 -41 20 -12 14 -18 15 -29 5 -10 -10 -11 -9 -5 2 6 11 4 13 -9 8
-11 -4 -15 -3 -10 4 4 8 -1 9 -17 4 -20 -7 -22 -6 -11 7 10 13 8 15 -15 12
-41 -5 -63 4 -56 23 4 11 2 14 -5 9 -7 -4 -12 -14 -12 -22 0 -12 -2 -12 -14
-2 -7 7 -11 20 -8 28 3 8 -4 4 -16 -10 -20 -23 -28 -19 -23 12 0 4 -6 5 -13 2
-8 -3 -12 -12 -9 -21 5 -13 3 -13 -15 -4 -12 7 -22 14 -22 17 0 3 4 3 8 0 5
-3 9 1 9 9 0 13 -2 13 -16 1 -12 -11 -21 -12 -36 -4 -17 10 -18 9 -8 -3 9 -11
7 -14 -13 -15 -20 -2 -23 1 -13 12 7 8 10 16 7 19 -2 2 -10 -4 -18 -15z m-95
-20 c-3 -5 -12 -10 -18 -10 -7 0 -6 4 3 10 19 12 23 12 15 0z m608 -123 c4 3
7 1 7 -5 0 -17 -16 -15 -31 6 -12 15 -12 16 2 5 9 -7 19 -10 22 -6z m117 -90
c0 -6 -8 0 -19 11 -10 12 -22 18 -26 14 -5 -4 -5 -1 -1 6 6 11 12 10 27 -4 10
-9 19 -22 19 -27z m320 -381 c0 -2 -7 -7 -16 -10 -8 -3 -12 -2 -9 4 6 10 25
14 25 6z m-1920 -100 c-14 -14 -22 -2 -14 18 5 14 9 15 15 4 4 -7 4 -17 -1
-22z m1995 -176 c3 -6 -1 -7 -9 -4 -18 7 -21 14 -7 14 6 0 13 -4 16 -10z
m-1917 -650 c7 -11 9 -20 4 -20 -4 0 -13 9 -20 20 -7 11 -9 20 -4 20 4 0 13
-9 20 -20z m184 -308 c-7 -2 -9 -9 -5 -15 4 -7 -1 -6 -10 2 -20 16 -13 33 10
24 11 -4 13 -8 5 -11z m183 -222 c19 -8 19 -9 -2 -9 -12 -1 -25 4 -28 9 -7 12
2 12 30 0z m730 -22 c-19 -11 -30 -5 -21 11 4 6 14 7 22 4 15 -5 14 -7 -1 -15z
m-397 -29 c-16 -10 -33 5 -23 21 5 8 11 8 21 -1 12 -10 12 -14 2 -20z m472
-51 c7 -12 6 -19 -2 -24 -7 -4 -10 -4 -6 1 5 5 -1 14 -12 22 -11 8 -17 20 -13
29 6 16 10 14 33 -28z m-580 -12 c0 -3 -4 -8 -10 -11 -5 -3 -10 -1 -10 4 0 6
5 11 10 11 6 0 10 -2 10 -4z m-109 -20 c5 3 9 2 8 -3 -1 -4 -1 -15 0 -23 1
-13 2 -13 11 0 8 13 10 13 10 1 0 -12 3 -12 12 -3 15 15 28 16 28 2 0 -5 -3
-9 -7 -9 -5 1 -10 1 -13 -1 -27 -10 -49 -7 -54 8 -12 33 -14 42 -9 32 2 -5 9
-8 14 -4z"/>
<path d="M1329 2333 c-13 -16 -12 -17 4 -4 9 7 17 15 17 17 0 8 -8 3 -21 -13z"/>
<path d="M1461 2293 c-1 -17 16 -25 25 -12 4 7 3 9 -4 5 -5 -3 -13 0 -15 6 -4
9 -6 10 -6 1z"/>
<path d="M627 2249 c7 -7 15 -10 18 -7 3 3 -2 9 -12 12 -14 6 -15 5 -6 -5z"/>
<path d="M526 2194 c-5 -14 -4 -15 9 -4 17 14 19 20 6 20 -5 0 -12 -7 -15 -16z"/>
<path d="M397 2103 c-4 -3 -7 -11 -7 -17 0 -6 5 -5 12 2 6 6 9 14 7 17 -3 3
-9 2 -12 -2z"/>
<path d="M186 1844 c-10 -25 1 -29 14 -5 6 12 7 21 1 21 -5 0 -12 -7 -15 -16z"/>
<path d="M35 1289 c-10 -15 3 -25 16 -12 7 7 7 13 1 17 -6 3 -14 1 -17 -5z"/>
<path d="M36 1222 c-3 -5 1 -9 9 -9 8 0 12 4 9 9 -3 4 -7 8 -9 8 -2 0 -6 -4
-9 -8z"/>
<path d="M55 1149 c-10 -15 3 -25 16 -12 7 7 7 13 1 17 -6 3 -14 1 -17 -5z"/>
<path d="M70 1070 c0 -5 5 -10 11 -10 5 0 7 5 4 10 -3 6 -8 10 -11 10 -2 0 -4
-4 -4 -10z"/>
<path d="M90 980 c0 -5 5 -10 11 -10 5 0 7 5 4 10 -3 6 -8 10 -11 10 -2 0 -4
-4 -4 -10z"/>
<path d="M186 762 c-3 -5 1 -9 9 -9 8 0 12 4 9 9 -3 4 -7 8 -9 8 -2 0 -6 -4
-9 -8z"/>
<path d="M535 240 c-3 -5 0 -7 9 -4 11 4 14 0 11 -15 -2 -11 1 -24 7 -27 6 -4
8 -2 4 4 -3 6 -2 14 4 17 8 5 7 11 -1 21 -13 16 -25 18 -34 4z"/>
<path d="M1006 238 c3 -5 10 -6 15 -3 13 9 11 12 -6 12 -8 0 -12 -4 -9 -9z"/>
<path d="M1302 231 c-11 -7 -11 -9 0 -14 9 -3 15 1 15 9 0 8 -1 14 -1 14 -1 0
-7 -4 -14 -9z"/>
<path d="M850 173 c-12 -16 -25 -28 -28 -28 -26 -2 -48 -18 -49 -35 -1 -11 2
-18 8 -15 5 4 9 13 9 21 0 8 5 12 10 9 6 -3 10 -1 10 5 0 6 5 8 10 5 6 -4 8
-10 6 -14 -3 -4 1 -8 9 -8 12 0 12 3 2 16 -10 12 -9 14 4 9 13 -5 16 -2 12 13
-3 11 -1 19 5 17 5 -2 10 1 10 6 0 5 6 13 14 17 9 6 9 9 1 9 -6 0 -21 -12 -33
-27z"/>
<path d="M796 93 c-6 -14 -5 -15 5 -6 7 7 10 15 7 18 -3 3 -9 -2 -12 -12z"/>
</g>
</svg>
